<?xml version='1.0' encoding='UTF-8'?>
<!DOCTYPE svg PUBLIC "-//W3C//DTD SVG 1.0//EN" "http://www.w3.org/TR/2001/REC-SVG-20010904/DTD/svg10.dtd">
<svg viewBox="0 0 2560 200" xmlns="http://www.w3.org/2000/svg" xmlns:inkspace="http://www.inkscape.org/namespaces/inkscape" xmlns:xlink="http://www.w3.org/1999/xlink">
  <defs id="defs_block">
    <filter height="1.504" id="filter_blur" inkspace:collect="always" width="1.1575" x="-0.07875" y="-0.252">
      <feGaussianBlur id="feGaussianBlur3780" inkspace:collect="always" stdDeviation="4.2" />
    </filter>
  </defs>
  <title>blockdiag</title>
  <desc>blockdiag admin {
  n0_0 [label = "maximize(n)"];
  n0_1 [label = "size = ceil(log10(n))"];
  n0_2 [label = "sorted = 0"];
  n0_3 [label = "sorted = 1"];
  n0_4 [label = "offset = 1"];
  n0_5 [label = "i = 0; i &lt; size - 1; i++", shape = flowchart.loopin];
  n0_6 [label = "digit1 = n / (offset*10) % 10"];
  n0_7 [label = "digit2 = n / (offset   ) % 10"];
  n0_8 [label = "digit1 &gt; digit2", shape = flowchart.condition];
  n0_9 [label = "n = n - digit1 * offset * 10 + digit2 * offset * 10"];
  n0_10 [label = "n = n - digit2 * offset      + digit1 * offset     "];
  n0_11 [label = "sorted = 0"];
  n0_12 [label = "offset *= 10"];
  n0_13 [label = "sorted != 1"];
  n0_0 -&gt; n0_1;
  n0_1 -&gt; n0_2;
  n0_2 -&gt; n0_3;
  n0_3 -&gt; n0_4;
  n0_4 -&gt; n0_5
  n0_5 -&gt; n0_13;
  n0_13 -&gt; n0_3 [label = "true"];
  n0_5 -&gt; n0_6;
  n0_6 -&gt; n0_7;
  n0_7 -&gt; n0_8;
  n0_8 -&gt; n0_9  [label = "true"];
  n0_9 -&gt; n0_10;
  n0_10 -&gt; n0_11;
  n0_11 -&gt; n0_12;
  n0_8 -&gt; n0_12  [label = "false"];
  // n0_12 -&gt; n0_5;
}
</desc>
  <rect fill="rgb(0,0,0)" height="40" stroke="rgb(0,0,0)" style="filter:url(#filter_blur);opacity:0.7;fill-opacity:1" width="128" x="67" y="46" />
  <rect fill="rgb(0,0,0)" height="40" stroke="rgb(0,0,0)" style="filter:url(#filter_blur);opacity:0.7;fill-opacity:1" width="128" x="259" y="46" />
  <rect fill="rgb(0,0,0)" height="40" stroke="rgb(0,0,0)" style="filter:url(#filter_blur);opacity:0.7;fill-opacity:1" width="128" x="451" y="46" />
  <rect fill="rgb(0,0,0)" height="40" stroke="rgb(0,0,0)" style="filter:url(#filter_blur);opacity:0.7;fill-opacity:1" width="128" x="643" y="46" />
  <rect fill="rgb(0,0,0)" height="40" stroke="rgb(0,0,0)" style="filter:url(#filter_blur);opacity:0.7;fill-opacity:1" width="128" x="835" y="46" />
  <polygon fill="rgb(0,0,0)" points="1059,46 1123,46 1155,56 1155,86 1027,86 1027,56 1059,46" stroke="rgb(0,0,0)" style="filter:url(#filter_blur);opacity:0.7;fill-opacity:1" />
  <rect fill="rgb(0,0,0)" height="40" stroke="rgb(0,0,0)" style="filter:url(#filter_blur);opacity:0.7;fill-opacity:1" width="128" x="1219" y="46" />
  <rect fill="rgb(0,0,0)" height="40" stroke="rgb(0,0,0)" style="filter:url(#filter_blur);opacity:0.7;fill-opacity:1" width="128" x="1219" y="126" />
  <rect fill="rgb(0,0,0)" height="40" stroke="rgb(0,0,0)" style="filter:url(#filter_blur);opacity:0.7;fill-opacity:1" width="128" x="1411" y="46" />
  <polygon fill="rgb(0,0,0)" points="1667,38 1739,66 1667,94 1595,66 1667,38" stroke="rgb(0,0,0)" style="filter:url(#filter_blur);opacity:0.7;fill-opacity:1" />
  <rect fill="rgb(0,0,0)" height="40" stroke="rgb(0,0,0)" style="filter:url(#filter_blur);opacity:0.7;fill-opacity:1" width="128" x="1795" y="46" />
  <rect fill="rgb(0,0,0)" height="40" stroke="rgb(0,0,0)" style="filter:url(#filter_blur);opacity:0.7;fill-opacity:1" width="128" x="2371" y="46" />
  <rect fill="rgb(0,0,0)" height="40" stroke="rgb(0,0,0)" style="filter:url(#filter_blur);opacity:0.7;fill-opacity:1" width="128" x="1987" y="46" />
  <rect fill="rgb(0,0,0)" height="40" stroke="rgb(0,0,0)" style="filter:url(#filter_blur);opacity:0.7;fill-opacity:1" width="128" x="2179" y="46" />
  <rect fill="rgb(255,255,255)" height="40" stroke="rgb(0,0,0)" width="128" x="64" y="40" />
  <text fill="rgb(0,0,0)" font-family="sans-serif" font-size="11" font-style="normal" font-weight="normal" text-anchor="middle" textLength="66" x="128.0" y="66">maximize(n)</text>
  <rect fill="rgb(255,255,255)" height="40" stroke="rgb(0,0,0)" width="128" x="256" y="40" />
  <text fill="rgb(0,0,0)" font-family="sans-serif" font-size="11" font-style="normal" font-weight="normal" text-anchor="middle" textLength="126" x="320.0" y="66">size = ceil(log10(n))</text>
  <rect fill="rgb(255,255,255)" height="40" stroke="rgb(0,0,0)" width="128" x="448" y="40" />
  <text fill="rgb(0,0,0)" font-family="sans-serif" font-size="11" font-style="normal" font-weight="normal" text-anchor="middle" textLength="60" x="512.0" y="66">sorted = 0</text>
  <rect fill="rgb(255,255,255)" height="40" stroke="rgb(0,0,0)" width="128" x="640" y="40" />
  <text fill="rgb(0,0,0)" font-family="sans-serif" font-size="11" font-style="normal" font-weight="normal" text-anchor="middle" textLength="60" x="704.0" y="66">sorted = 1</text>
  <rect fill="rgb(255,255,255)" height="40" stroke="rgb(0,0,0)" width="128" x="832" y="40" />
  <text fill="rgb(0,0,0)" font-family="sans-serif" font-size="11" font-style="normal" font-weight="normal" text-anchor="middle" textLength="60" x="896.0" y="66">offset = 1</text>
  <polygon fill="rgb(255,255,255)" points="1056,40 1120,40 1152,50 1152,80 1024,80 1024,50 1056,40" stroke="rgb(0,0,0)" />
  <text fill="rgb(0,0,0)" font-family="sans-serif" font-size="11" font-style="normal" font-weight="normal" text-anchor="middle" textLength="126" x="1088.0" y="64">i = 0; i &lt; size - 1; </text>
  <text fill="rgb(0,0,0)" font-family="sans-serif" font-size="11" font-style="normal" font-weight="normal" text-anchor="middle" textLength="18" x="1088.0" y="77">i++</text>
  <rect fill="rgb(255,255,255)" height="40" stroke="rgb(0,0,0)" width="128" x="1216" y="40" />
  <text fill="rgb(0,0,0)" font-family="sans-serif" font-size="11" font-style="normal" font-weight="normal" text-anchor="middle" textLength="126" x="1280.0" y="59">digit1 = n / (offset*</text>
  <text fill="rgb(0,0,0)" font-family="sans-serif" font-size="11" font-style="normal" font-weight="normal" text-anchor="middle" textLength="48" x="1280.0" y="72">10) % 10</text>
  <rect fill="rgb(255,255,255)" height="40" stroke="rgb(0,0,0)" width="128" x="1216" y="120" />
  <text fill="rgb(0,0,0)" font-family="sans-serif" font-size="11" font-style="normal" font-weight="normal" text-anchor="middle" textLength="66" x="1280.0" y="146">sorted != 1</text>
  <rect fill="rgb(255,255,255)" height="40" stroke="rgb(0,0,0)" width="128" x="1408" y="40" />
  <text fill="rgb(0,0,0)" font-family="sans-serif" font-size="11" font-style="normal" font-weight="normal" text-anchor="middle" textLength="126" x="1472.0" y="59">digit2 = n / (offset </text>
  <text fill="rgb(0,0,0)" font-family="sans-serif" font-size="11" font-style="normal" font-weight="normal" text-anchor="middle" textLength="48" x="1472.0" y="72">  ) % 10</text>
  <polygon fill="rgb(255,255,255)" points="1664,32 1736,60 1664,88 1592,60 1664,32" stroke="rgb(0,0,0)" />
  <text fill="rgb(0,0,0)" font-family="sans-serif" font-size="11" font-style="normal" font-weight="normal" text-anchor="middle" textLength="72" x="1664.0" y="59">digit1 &gt; dig</text>
  <text fill="rgb(0,0,0)" font-family="sans-serif" font-size="11" font-style="normal" font-weight="normal" text-anchor="middle" textLength="18" x="1664.0" y="72">it2</text>
  <rect fill="rgb(255,255,255)" height="40" stroke="rgb(0,0,0)" width="128" x="1792" y="40" />
  <text fill="rgb(0,0,0)" font-family="sans-serif" font-size="11" font-style="normal" font-weight="normal" text-anchor="middle" textLength="126" x="1856.0" y="53">n = n - digit1 * offs</text>
  <text fill="rgb(0,0,0)" font-family="sans-serif" font-size="11" font-style="normal" font-weight="normal" text-anchor="middle" textLength="126" x="1856.0" y="66">et * 10 + digit2 * of</text>
  <text fill="rgb(0,0,0)" font-family="sans-serif" font-size="11" font-style="normal" font-weight="normal" text-anchor="middle" textLength="54" x="1856.0" y="79">fset * 10</text>
  <rect fill="rgb(255,255,255)" height="40" stroke="rgb(0,0,0)" width="128" x="2368" y="40" />
  <text fill="rgb(0,0,0)" font-family="sans-serif" font-size="11" font-style="normal" font-weight="normal" text-anchor="middle" textLength="72" x="2432.0" y="66">offset *= 10</text>
  <rect fill="rgb(255,255,255)" height="40" stroke="rgb(0,0,0)" width="128" x="1984" y="40" />
  <text fill="rgb(0,0,0)" font-family="sans-serif" font-size="11" font-style="normal" font-weight="normal" text-anchor="middle" textLength="126" x="2048.0" y="53">n = n - digit2 * offs</text>
  <text fill="rgb(0,0,0)" font-family="sans-serif" font-size="11" font-style="normal" font-weight="normal" text-anchor="middle" textLength="126" x="2048.0" y="66">et      + digit1 * of</text>
  <text fill="rgb(0,0,0)" font-family="sans-serif" font-size="11" font-style="normal" font-weight="normal" text-anchor="middle" textLength="24" x="2048.0" y="79">fset</text>
  <rect fill="rgb(255,255,255)" height="40" stroke="rgb(0,0,0)" width="128" x="2176" y="40" />
  <text fill="rgb(0,0,0)" font-family="sans-serif" font-size="11" font-style="normal" font-weight="normal" text-anchor="middle" textLength="60" x="2240.0" y="66">sorted = 0</text>
  <path d="M 192 60 L 248 60" fill="none" stroke="rgb(0,0,0)" />
  <polygon fill="rgb(0,0,0)" points="255,60 248,56 248,64 255,60" stroke="rgb(0,0,0)" />
  <path d="M 384 60 L 440 60" fill="none" stroke="rgb(0,0,0)" />
  <polygon fill="rgb(0,0,0)" points="447,60 440,56 440,64 447,60" stroke="rgb(0,0,0)" />
  <path d="M 576 60 L 632 60" fill="none" stroke="rgb(0,0,0)" />
  <polygon fill="rgb(0,0,0)" points="639,60 632,56 632,64 639,60" stroke="rgb(0,0,0)" />
  <path d="M 768 60 L 824 60" fill="none" stroke="rgb(0,0,0)" />
  <polygon fill="rgb(0,0,0)" points="831,60 824,56 824,64 831,60" stroke="rgb(0,0,0)" />
  <path d="M 960 60 L 1016 60" fill="none" stroke="rgb(0,0,0)" />
  <polygon fill="rgb(0,0,0)" points="1023,60 1016,56 1016,64 1023,60" stroke="rgb(0,0,0)" />
  <path d="M 1152 60 L 1184 60" fill="none" stroke="rgb(0,0,0)" />
  <path d="M 1184 60 L 1184 140" fill="none" stroke="rgb(0,0,0)" />
  <path d="M 1184 140 L 1208 140" fill="none" stroke="rgb(0,0,0)" />
  <polygon fill="rgb(0,0,0)" points="1215,140 1208,136 1208,144 1215,140" stroke="rgb(0,0,0)" />
  <path d="M 1152 60 L 1208 60" fill="none" stroke="rgb(0,0,0)" />
  <polygon fill="rgb(0,0,0)" points="1215,60 1208,56 1208,64 1215,60" stroke="rgb(0,0,0)" />
  <path d="M 1344 60 L 1356.0 60" fill="none" stroke="rgb(0,0,0)" />
  <path d="M 1356.0 60.0 A4.0,4.0 0 0 1 1364.0 60.0" fill="none" stroke="rgb(0,0,0)" />
  <path d="M 1364.0 60 L 1400 60" fill="none" stroke="rgb(0,0,0)" />
  <polygon fill="rgb(0,0,0)" points="1407,60 1400,56 1400,64 1407,60" stroke="rgb(0,0,0)" />
  <path d="M 1536 60 L 1584 60" fill="none" stroke="rgb(0,0,0)" />
  <polygon fill="rgb(0,0,0)" points="1591,60 1584,56 1584,64 1591,60" stroke="rgb(0,0,0)" />
  <path d="M 1736 60 L 1784 60" fill="none" stroke="rgb(0,0,0)" />
  <polygon fill="rgb(0,0,0)" points="1791,60 1784,56 1784,64 1791,60" stroke="rgb(0,0,0)" />
  <path d="M 1736 60 L 1760 60" fill="none" stroke="rgb(0,0,0)" />
  <path d="M 1760 60 L 1760 100" fill="none" stroke="rgb(0,0,0)" />
  <path d="M 1760 100 L 2352 100" fill="none" stroke="rgb(0,0,0)" />
  <path d="M 2352 100 L 2352 60" fill="none" stroke="rgb(0,0,0)" />
  <path d="M 2352 60 L 2360 60" fill="none" stroke="rgb(0,0,0)" />
  <polygon fill="rgb(0,0,0)" points="2367,60 2360,56 2360,64 2367,60" stroke="rgb(0,0,0)" />
  <path d="M 1920 60 L 1976 60" fill="none" stroke="rgb(0,0,0)" />
  <polygon fill="rgb(0,0,0)" points="1983,60 1976,56 1976,64 1983,60" stroke="rgb(0,0,0)" />
  <path d="M 2112 60 L 2168 60" fill="none" stroke="rgb(0,0,0)" />
  <polygon fill="rgb(0,0,0)" points="2175,60 2168,56 2168,64 2175,60" stroke="rgb(0,0,0)" />
  <path d="M 2304 60 L 2360 60" fill="none" stroke="rgb(0,0,0)" />
  <polygon fill="rgb(0,0,0)" points="2367,60 2360,56 2360,64 2367,60" stroke="rgb(0,0,0)" />
  <path d="M 1344 140 L 1360 140" fill="none" stroke="rgb(0,0,0)" />
  <path d="M 1360 140 L 1360 25" fill="none" stroke="rgb(0,0,0)" />
  <path d="M 704 25 L 1360 25" fill="none" stroke="rgb(0,0,0)" />
  <path d="M 704 25 L 704 32" fill="none" stroke="rgb(0,0,0)" />
  <polygon fill="rgb(0,0,0)" points="704,39 700,32 708,32 704,39" stroke="rgb(0,0,0)" />
  <rect fill="white" height="15" stroke="rgb(0,0,0)" width="40" x="1740" y="38" />
  <text fill="rgb(0,0,0)" font-family="sans-serif" font-size="11" font-style="normal" font-weight="normal" text-anchor="middle" textLength="24" x="1760.0" y="51">true</text>
  <rect fill="white" height="15" stroke="rgb(0,0,0)" width="46" x="2025" y="83" />
  <text fill="rgb(0,0,0)" font-family="sans-serif" font-size="11" font-style="normal" font-weight="normal" text-anchor="middle" textLength="30" x="2048.0" y="96">false</text>
  <rect fill="white" height="15" stroke="rgb(0,0,0)" width="40" x="1340" y="103" />
  <text fill="rgb(0,0,0)" font-family="sans-serif" font-size="11" font-style="normal" font-weight="normal" text-anchor="middle" textLength="24" x="1360.0" y="116">true</text>
</svg>
