<?xml version="1.0" encoding="UTF-8" standalone="no"?>
<!-- Created with Inkscape (http://www.inkscape.org/) -->

<svg
   width="55mm"
   height="16mm"
   viewBox="0 0 55 16"
   version="1.1"
   id="svg2208"
   inkscape:version="1.1.2 (b8e25be833, 2022-02-05)"
   sodipodi:docname="ksit_logo.svg"
   xmlns:inkscape="http://www.inkscape.org/namespaces/inkscape"
   xmlns:sodipodi="http://sodipodi.sourceforge.net/DTD/sodipodi-0.dtd"
   xmlns="http://www.w3.org/2000/svg"
   xmlns:svg="http://www.w3.org/2000/svg">
  <sodipodi:namedview
     id="namedview2210"
     pagecolor="#505050"
     bordercolor="#eeeeee"
     borderopacity="1"
     inkscape:pageshadow="0"
     inkscape:pageopacity="0"
     inkscape:pagecheckerboard="0"
     inkscape:document-units="mm"
     showgrid="false"
     inkscape:zoom="3.6233469"
     inkscape:cx="113.56903"
     inkscape:cy="53.127676"
     inkscape:window-width="1920"
     inkscape:window-height="1001"
     inkscape:window-x="-9"
     inkscape:window-y="-9"
     inkscape:window-maximized="1"
     inkscape:current-layer="layer1" />
  <defs
     id="defs2205" />
  <g
     inkscape:label="Layer 1"
     inkscape:groupmode="layer"
     id="layer1">
    <g
       id="g2192"
       transform="matrix(0.35277777,0,0,-0.35277777,-145.50222,221.36705)">
      <path
         d="m 416.85,598.82 h -3 v -3 h 3 z m 0,6 h -3 v -3 h 3 z m 0,6 h -3 v -3 h 3 z m 3,-15 h -3 v -3 h 3 z m 0,6 h -3 v -3 h 3 z m 0,6 h -3 v -3 h 3 z m 0,15 h -3 v -12 h 3 z m 3,-30 h -3 v -3 h 3 z m 0,33 h -3 v -3 h 3 z m 3,-36 h -3 v -3 h 3 z m 0,33 h -3 v -3 h 3 z m 0,-15 h -3 v -3 h 3 z m 3,-9 h -3 v -3 h 3 z m 0,21 h -3 v -3 h 3 z m 0,-9 h -3 v -3 h 3 z m 3,-3 h -3 v -3 h 3 z m 3,-12 h -6 v -3 h 6 z m 6,6 h -9 v -3 h 3 v -3 h 3 v 3 h 3 z m 3,-6 h -6 v -3 h 6 z m 0,12 h -3 v -3 h 3 z m 2.95,-9 h -2.95 v -3 h 2.95 z m 0,21 h -2.95 v -3 h -15 v -3 h 15 v 3 h 2.95 z m 0.05,-33 h -21 v -3 h 21 z m 0,24 h -3 v -3 h 3 z m 2.95,12 h -3 v -3 h 3 z m 0.05,-33 h -3 v -3 h 3 z m 0,18 h -3 v -3 h 3 z m 2.95,18 h -3 v -3 h 3 z m 3,-3 h -3 v -12 h 3 z m 0.05,-27 h -3 v -3 h -3 v -3 h 3 v 3 h 3 z m 0,6 h -3 v -3 h 3 z m 0,6 h -3 v -3 h 3 z m 2.95,-9 h -2.95 v -3 h 2.95 z m 0,6 h -2.95 v -3 h 2.95 z m 0,6 h -2.95 v -3 h 2.95 z"
         style="fill:#0852ba;fill-opacity:1;fill-rule:evenodd;stroke:none"
         id="path990" />
      <path
         d="m 485.85,604.87 h -6 v -3 h -3 v -3.05 h 6 v 3.05 h 3 z m 3,-15.05 h -3 v 3 h -3 v 3 h -3 v 3 h -6 v 12.1 h -6 v -12.1 -3 -12 h 6 v 12 h 3 v -3 h 3 v -3 h 3 v -3 h 6 z m 3,-3 h -6 v -3 h 6 z m 0,24.1 h -6 v -3 -0.05 h -3 v -3 h 3 v 0.05 h 3 v 3 h 3 z m 24,-21.1 h -6 v -3 h 6 z m 0,18.05 h -6 v -3 h 6 z m 0,3.05 h -21 v -3 -21.1 -3 h 21 v 3 h -15 v 21.1 h 15 z m 24.05,-6.05 h -6 v -6.05 h -3 v -3 h -3 v -3 h -3 v 12.1 h -6.05 v -12.1 -3 -3 -3 h 6.05 v 3 h 3 v 3 h 3 v 3 h 3 v -9 h 6 z m 18.05,3 h -6 v -24.05 h 6 z m 9,0 h -6.05 v -3 h 6.05 z m 0,3.05 H 542.9 v -3 -3 h 6 v 3 h 18.05 z"
         style="fill:#0852ba;fill-opacity:1;fill-rule:evenodd;stroke:none"
         id="path992" />
    </g>
  </g>
</svg>
